HIERARCHY
ROOT Hips
{
  OFFSET 0.0 0.0 0.0
  CHANNELS 3 Xposition Yposition Zposition
  JOINT LHipJoint
  {
    OFFSET -0.13 0 0.0
    CHANNELS 3 Zrotation Xrotation Yrotation
    JOINT LLeg
    {
      OFFSET 0 -0.4 0.0
      CHANNELS 3 Zrotation Xrotation Yrotation
      JOINT LFoot
      {
        OFFSET 0 -0.4 0.0
        CHANNELS 3 Zrotation Xrotation Yrotation
        End Site
        {
          OFFSET 0.0 0.0 0.0
        }
      }
    }
  }
  JOINT RHipJoint
  {
    OFFSET 0.13 0 0.0
    CHANNELS 3 Zrotation Xrotation Yrotation
    JOINT RLeg
    {
      OFFSET 0 -0.4 0.0
      CHANNELS 3 Zrotation Xrotation Yrotation
      JOINT RFoot
      {
        OFFSET 0 -0.4 0.0
        CHANNELS 3 Zrotation Xrotation Yrotation
        End Site
        {
          OFFSET 0.0 0.0 0.0
        }
      }
    }
  }
  JOINT Chest
  {
    OFFSET 0 0.6 0.0
    CHANNELS 3 Zrotation Xrotation Yrotation
    JOINT Neck
    {
      OFFSET 0 0.1 0.0
      CHANNELS 3 Zrotation Xrotation Yrotation
      JOINT Head
      {
        OFFSET 0 0.1 0.0
        CHANNELS 3 Zrotation Xrotation Yrotation
        End Site
        {
          OFFSET 0.0 0.0 0.0
        }
      }
    }
    JOINT LShoulder
    {
      OFFSET -0.2 0 0.0
      CHANNELS 3 Zrotation Xrotation Yrotation
      JOINT LArm
      {
        OFFSET 0 -0.24 0.0
        CHANNELS 3 Zrotation Xrotation Yrotation
        JOINT LWrist
        {
          OFFSET 0 -0.23 0.0
          CHANNELS 3 Zrotation Xrotation Yrotation
          End Site
          {
            OFFSET 0.0 0.0 0.0
          }
        }
      }
    }
    JOINT RShoulder
    {
      OFFSET 0.2 0 0.0
      CHANNELS 3 Zrotation Xrotation Yrotation
      JOINT RArm
      {
        OFFSET 0 -0.24 0.0
        CHANNELS 3 Zrotation Xrotation Yrotation
        JOINT RWrist
        {
          OFFSET 0 -0.23 0.0
          CHANNELS 3 Zrotation Xrotation Yrotation
          End Site
          {
            OFFSET 0.0 0.0 0.0
          }
        }
      }
    }
  }
}
MOTION
Frames: 35
Frame Time: 0.03333333333333333
1.5 1.5 0.0 -60.690733320700275 0.0 0.0 91.32060559453402 0.0 0.0 0.0 0.0 0.0 0.0 0.0 0.0 0.0 0.0 0.0 0.0 0.0 0.0 0.0 0.0 0.0 0.0 0.0 0.0 0.0 0.0 0.0 2.2584780554367683 0.0 0.0 -79.6550364615412 0.0 0.0 0.0 0.0 0.0 -12.942757125745858 0.0 0.0 108.90796363550892 0.0 0.0 0.0 0.0 0.0
1.5 1.5 0.0 -60.690733320700275 0.0 0.0 91.32060559453402 0.0 0.0 0.0 0.0 0.0 0.0 0.0 0.0 0.0 0.0 0.0 0.0 0.0 0.0 0.0 0.0 0.0 0.0 0.0 0.0 0.0 0.0 0.0 2.2584780554367683 0.0 0.0 -79.6550364615412 0.0 0.0 0.0 0.0 0.0 -12.942757125745858 0.0 0.0 108.90796363550892 0.0 0.0 0.0 0.0 0.0
1.5 1.5 0.0 -60.690733320700275 0.0 0.0 91.32060559453402 0.0 0.0 0.0 0.0 0.0 0.0 0.0 0.0 0.0 0.0 0.0 0.0 0.0 0.0 0.0 0.0 0.0 0.0 0.0 0.0 0.0 0.0 0.0 2.2584780554367683 0.0 0.0 -79.6550364615412 0.0 0.0 0.0 0.0 0.0 -12.942757125745858 0.0 0.0 108.90796363550892 0.0 0.0 0.0 0.0 0.0
1.5 1.5 0.0 -60.690733320700275 0.0 0.0 91.32060559453402 0.0 0.0 0.0 0.0 0.0 0.0 0.0 0.0 0.0 0.0 0.0 0.0 0.0 0.0 0.0 0.0 0.0 0.0 0.0 0.0 0.0 0.0 0.0 2.2584780554367683 0.0 0.0 -79.6550364615412 0.0 0.0 0.0 0.0 0.0 -12.942757125745858 0.0 0.0 108.90796363550892 0.0 0.0 0.0 0.0 0.0
1.5 1.5 0.0 -60.690733320700275 0.0 0.0 91.32060559453402 0.0 0.0 0.0 0.0 0.0 0.0 0.0 0.0 0.0 0.0 0.0 0.0 0.0 0.0 0.0 0.0 0.0 0.0 0.0 0.0 0.0 0.0 0.0 2.2584780554367683 0.0 0.0 -79.6550364615412 0.0 0.0 0.0 0.0 0.0 -12.942757125745858 0.0 0.0 108.90796363550892 0.0 0.0 0.0 0.0 0.0
1.5 1.5 0.0 -60.690733320700275 0.0 0.0 91.32060559453402 0.0 0.0 0.0 0.0 0.0 0.0 0.0 0.0 0.0 0.0 0.0 0.0 0.0 0.0 0.0 0.0 0.0 0.0 0.0 0.0 0.0 0.0 0.0 2.2584780554367683 0.0 0.0 -79.6550364615412 0.0 0.0 0.0 0.0 0.0 -12.942757125745858 0.0 0.0 108.90796363550892 0.0 0.0 0.0 0.0 0.0
1.5 1.5 0.0 -60.690733320700275 0.0 0.0 91.32060559453402 0.0 0.0 0.0 0.0 0.0 0.0 0.0 0.0 0.0 0.0 0.0 0.0 0.0 0.0 0.0 0.0 0.0 0.0 0.0 0.0 0.0 0.0 0.0 2.2584780554367683 0.0 0.0 -79.6550364615412 0.0 0.0 0.0 0.0 0.0 -12.942757125745858 0.0 0.0 108.90796363550892 0.0 0.0 0.0 0.0 0.0
1.5 1.5 0.0 -60.690733320700275 0.0 0.0 91.32060559453402 0.0 0.0 0.0 0.0 0.0 0.0 0.0 0.0 0.0 0.0 0.0 0.0 0.0 0.0 0.0 0.0 0.0 0.0 0.0 0.0 0.0 0.0 0.0 2.2584780554367683 0.0 0.0 -79.6550364615412 0.0 0.0 0.0 0.0 0.0 -12.942757125745858 0.0 0.0 108.90796363550892 0.0 0.0 0.0 0.0 0.0
1.5 1.5 0.0 -60.690733320700275 0.0 0.0 91.32060559453402 0.0 0.0 0.0 0.0 0.0 0.0 0.0 0.0 0.0 0.0 0.0 0.0 0.0 0.0 0.0 0.0 0.0 0.0 0.0 0.0 0.0 0.0 0.0 2.2584780554367683 0.0 0.0 -79.6550364615412 0.0 0.0 0.0 0.0 0.0 -12.942757125745858 0.0 0.0 108.90796363550892 0.0 0.0 0.0 0.0 0.0
1.5 1.5 0.0 -60.690733320700275 0.0 0.0 91.32060559453402 0.0 0.0 0.0 0.0 0.0 0.0 0.0 0.0 0.0 0.0 0.0 0.0 0.0 0.0 0.0 0.0 0.0 0.0 0.0 0.0 0.0 0.0 0.0 2.2584780554367683 0.0 0.0 -79.6550364615412 0.0 0.0 0.0 0.0 0.0 -12.942757125745858 0.0 0.0 108.90796363550892 0.0 0.0 0.0 0.0 0.0
1.5 1.5 0.0 -60.690733320700275 0.0 0.0 91.32060559453402 0.0 0.0 0.0 0.0 0.0 0.0 0.0 0.0 0.0 0.0 0.0 0.0 0.0 0.0 0.0 0.0 0.0 0.0 0.0 0.0 0.0 0.0 0.0 2.2584780554367683 0.0 0.0 -79.6550364615412 0.0 0.0 0.0 0.0 0.0 -12.942757125745858 0.0 0.0 108.90796363550892 0.0 0.0 0.0 0.0 0.0
1.5 1.5 0.0 -60.690733320700275 0.0 0.0 91.32060559453402 0.0 0.0 0.0 0.0 0.0 0.0 0.0 0.0 0.0 0.0 0.0 0.0 0.0 0.0 0.0 0.0 0.0 0.0 0.0 0.0 0.0 0.0 0.0 2.2584780554367683 0.0 0.0 -79.6550364615412 0.0 0.0 0.0 0.0 0.0 -12.942757125745858 0.0 0.0 108.90796363550892 0.0 0.0 0.0 0.0 0.0
1.5 1.5 0.0 -60.690733320700275 0.0 0.0 91.32060559453402 0.0 0.0 0.0 0.0 0.0 0.0 0.0 0.0 0.0 0.0 0.0 0.0 0.0 0.0 0.0 0.0 0.0 0.0 0.0 0.0 0.0 0.0 0.0 2.2584780554367683 0.0 0.0 -79.6550364615412 0.0 0.0 0.0 0.0 0.0 -12.942757125745858 0.0 0.0 108.90796363550892 0.0 0.0 0.0 0.0 0.0
1.5 1.5 0.0 -60.690733320700275 0.0 0.0 91.32060559453402 0.0 0.0 0.0 0.0 0.0 0.0 0.0 0.0 0.0 0.0 0.0 0.0 0.0 0.0 0.0 0.0 0.0 0.0 0.0 0.0 0.0 0.0 0.0 2.2584780554367683 0.0 0.0 -79.6550364615412 0.0 0.0 0.0 0.0 0.0 -12.942757125745858 0.0 0.0 108.90796363550892 0.0 0.0 0.0 0.0 0.0
1.5 1.5 0.0 -60.690733320700275 0.0 0.0 91.32060559453402 0.0 0.0 0.0 0.0 0.0 0.0 0.0 0.0 0.0 0.0 0.0 0.0 0.0 0.0 0.0 0.0 0.0 0.0 0.0 0.0 0.0 0.0 0.0 2.2584780554367683 0.0 0.0 -79.6550364615412 0.0 0.0 0.0 0.0 0.0 -12.942757125745858 0.0 0.0 108.90796363550892 0.0 0.0 0.0 0.0 0.0
1.5 1.5 0.0 -60.690733320700275 0.0 0.0 91.32060559453402 0.0 0.0 0.0 0.0 0.0 0.0 0.0 0.0 0.0 0.0 0.0 0.0 0.0 0.0 0.0 0.0 0.0 0.0 0.0 0.0 0.0 0.0 0.0 2.2584780554367683 0.0 0.0 -79.6550364615412 0.0 0.0 0.0 0.0 0.0 -12.942757125745858 0.0 0.0 108.90796363550892 0.0 0.0 0.0 0.0 0.0
1.5 1.5 0.0 -60.690733320700275 0.0 0.0 91.32060559453402 0.0 0.0 0.0 0.0 0.0 0.0 0.0 0.0 0.0 0.0 0.0 0.0 0.0 0.0 0.0 0.0 0.0 0.0 0.0 0.0 0.0 0.0 0.0 2.2584780554367683 0.0 0.0 -79.6550364615412 0.0 0.0 0.0 0.0 0.0 -12.942757125745858 0.0 0.0 108.90796363550892 0.0 0.0 0.0 0.0 0.0
1.5 1.5 0.0 -60.690733320700275 0.0 0.0 91.32060559453402 0.0 0.0 0.0 0.0 0.0 0.0 0.0 0.0 0.0 0.0 0.0 0.0 0.0 0.0 0.0 0.0 0.0 0.0 0.0 0.0 0.0 0.0 0.0 2.2584780554367683 0.0 0.0 -79.6550364615412 0.0 0.0 0.0 0.0 0.0 -12.942757125745858 0.0 0.0 108.90796363550892 0.0 0.0 0.0 0.0 0.0
1.5 1.5 0.0 -60.690733320700275 0.0 0.0 91.32060559453402 0.0 0.0 0.0 0.0 0.0 0.0 0.0 0.0 0.0 0.0 0.0 0.0 0.0 0.0 0.0 0.0 0.0 0.0 0.0 0.0 0.0 0.0 0.0 2.2584780554367683 0.0 0.0 -79.6550364615412 0.0 0.0 0.0 0.0 0.0 -12.942757125745858 0.0 0.0 108.90796363550892 0.0 0.0 0.0 0.0 0.0
1.5 1.5 0.0 -60.690733320700275 0.0 0.0 91.32060559453402 0.0 0.0 0.0 0.0 0.0 0.0 0.0 0.0 0.0 0.0 0.0 0.0 0.0 0.0 0.0 0.0 0.0 0.0 0.0 0.0 0.0 0.0 0.0 2.2584780554367683 0.0 0.0 -79.6550364615412 0.0 0.0 0.0 0.0 0.0 -12.942757125745858 0.0 0.0 108.90796363550892 0.0 0.0 0.0 0.0 0.0
1.5 1.5 0.0 -60.690733320700275 0.0 0.0 91.32060559453402 0.0 0.0 0.0 0.0 0.0 0.0 0.0 0.0 0.0 0.0 0.0 0.0 0.0 0.0 0.0 0.0 0.0 0.0 0.0 0.0 0.0 0.0 0.0 2.2584780554367683 0.0 0.0 -79.6550364615412 0.0 0.0 0.0 0.0 0.0 -12.942757125745858 0.0 0.0 108.90796363550892 0.0 0.0 0.0 0.0 0.0
1.5 1.5 0.0 -60.690733320700275 0.0 0.0 91.32060559453402 0.0 0.0 0.0 0.0 0.0 0.0 0.0 0.0 0.0 0.0 0.0 0.0 0.0 0.0 0.0 0.0 0.0 0.0 0.0 0.0 0.0 0.0 0.0 2.2584780554367683 0.0 0.0 -79.6550364615412 0.0 0.0 0.0 0.0 0.0 -12.942757125745858 0.0 0.0 108.90796363550892 0.0 0.0 0.0 0.0 0.0
1.5 1.5 0.0 -60.690733320700275 0.0 0.0 91.32060559453402 0.0 0.0 0.0 0.0 0.0 0.0 0.0 0.0 0.0 0.0 0.0 0.0 0.0 0.0 0.0 0.0 0.0 0.0 0.0 0.0 0.0 0.0 0.0 2.2584780554367683 0.0 0.0 -79.6550364615412 0.0 0.0 0.0 0.0 0.0 -12.942757125745858 0.0 0.0 108.90796363550892 0.0 0.0 0.0 0.0 0.0
1.5 1.5 0.0 -60.690733320700275 0.0 0.0 91.32060559453402 0.0 0.0 0.0 0.0 0.0 0.0 0.0 0.0 0.0 0.0 0.0 0.0 0.0 0.0 0.0 0.0 0.0 0.0 0.0 0.0 0.0 0.0 0.0 2.2584780554367683 0.0 0.0 -79.6550364615412 0.0 0.0 0.0 0.0 0.0 -12.942757125745858 0.0 0.0 108.90796363550892 0.0 0.0 0.0 0.0 0.0
1.5 1.5 0.0 -60.690733320700275 0.0 0.0 91.32060559453402 0.0 0.0 0.0 0.0 0.0 0.0 0.0 0.0 0.0 0.0 0.0 0.0 0.0 0.0 0.0 0.0 0.0 0.0 0.0 0.0 0.0 0.0 0.0 2.2584780554367683 0.0 0.0 -79.6550364615412 0.0 0.0 0.0 0.0 0.0 -12.942757125745858 0.0 0.0 108.90796363550892 0.0 0.0 0.0 0.0 0.0
1.5 1.5 0.0 -60.690733320700275 0.0 0.0 91.32060559453402 0.0 0.0 0.0 0.0 0.0 0.0 0.0 0.0 0.0 0.0 0.0 0.0 0.0 0.0 0.0 0.0 0.0 0.0 0.0 0.0 0.0 0.0 0.0 2.2584780554367683 0.0 0.0 -79.6550364615412 0.0 0.0 0.0 0.0 0.0 -12.942757125745858 0.0 0.0 108.90796363550892 0.0 0.0 0.0 0.0 0.0
1.5 1.5 0.0 -60.690733320700275 0.0 0.0 91.32060559453402 0.0 0.0 0.0 0.0 0.0 0.0 0.0 0.0 0.0 0.0 0.0 0.0 0.0 0.0 0.0 0.0 0.0 0.0 0.0 0.0 0.0 0.0 0.0 2.2584780554367683 0.0 0.0 -79.6550364615412 0.0 0.0 0.0 0.0 0.0 -12.942757125745858 0.0 0.0 108.90796363550892 0.0 0.0 0.0 0.0 0.0
1.5 1.5 0.0 -60.690733320700275 0.0 0.0 91.32060559453402 0.0 0.0 0.0 0.0 0.0 0.0 0.0 0.0 0.0 0.0 0.0 0.0 0.0 0.0 0.0 0.0 0.0 0.0 0.0 0.0 0.0 0.0 0.0 2.2584780554367683 0.0 0.0 -79.6550364615412 0.0 0.0 0.0 0.0 0.0 -12.942757125745858 0.0 0.0 108.90796363550892 0.0 0.0 0.0 0.0 0.0
1.5 1.5 0.0 -60.690733320700275 0.0 0.0 91.32060559453402 0.0 0.0 0.0 0.0 0.0 0.0 0.0 0.0 0.0 0.0 0.0 0.0 0.0 0.0 0.0 0.0 0.0 0.0 0.0 0.0 0.0 0.0 0.0 2.2584780554367683 0.0 0.0 -79.6550364615412 0.0 0.0 0.0 0.0 0.0 -12.942757125745858 0.0 0.0 108.90796363550892 0.0 0.0 0.0 0.0 0.0
1.5 1.5 0.0 -60.690733320700275 0.0 0.0 91.32060559453402 0.0 0.0 0.0 0.0 0.0 0.0 0.0 0.0 0.0 0.0 0.0 0.0 0.0 0.0 0.0 0.0 0.0 0.0 0.0 0.0 0.0 0.0 0.0 2.2584780554367683 0.0 0.0 -79.6550364615412 0.0 0.0 0.0 0.0 0.0 -12.942757125745858 0.0 0.0 108.90796363550892 0.0 0.0 0.0 0.0 0.0
1.5 1.5 0.0 -60.690733320700275 0.0 0.0 91.32060559453402 0.0 0.0 0.0 0.0 0.0 0.0 0.0 0.0 0.0 0.0 0.0 0.0 0.0 0.0 0.0 0.0 0.0 0.0 0.0 0.0 0.0 0.0 0.0 2.2584780554367683 0.0 0.0 -79.6550364615412 0.0 0.0 0.0 0.0 0.0 -12.942757125745858 0.0 0.0 108.90796363550892 0.0 0.0 0.0 0.0 0.0
1.5 1.5 0.0 -60.690733320700275 0.0 0.0 91.32060559453402 0.0 0.0 0.0 0.0 0.0 0.0 0.0 0.0 0.0 0.0 0.0 0.0 0.0 0.0 0.0 0.0 0.0 0.0 0.0 0.0 0.0 0.0 0.0 2.2584780554367683 0.0 0.0 -79.6550364615412 0.0 0.0 0.0 0.0 0.0 -12.942757125745858 0.0 0.0 108.90796363550892 0.0 0.0 0.0 0.0 0.0
1.5 1.5 0.0 -60.690733320700275 0.0 0.0 91.32060559453402 0.0 0.0 0.0 0.0 0.0 0.0 0.0 0.0 0.0 0.0 0.0 0.0 0.0 0.0 0.0 0.0 0.0 0.0 0.0 0.0 0.0 0.0 0.0 2.2584780554367683 0.0 0.0 -79.6550364615412 0.0 0.0 0.0 0.0 0.0 -12.942757125745858 0.0 0.0 108.90796363550892 0.0 0.0 0.0 0.0 0.0
1.5 1.5 0.0 -60.690733320700275 0.0 0.0 91.32060559453402 0.0 0.0 0.0 0.0 0.0 0.0 0.0 0.0 0.0 0.0 0.0 0.0 0.0 0.0 0.0 0.0 0.0 0.0 0.0 0.0 0.0 0.0 0.0 2.2584780554367683 0.0 0.0 -79.6550364615412 0.0 0.0 0.0 0.0 0.0 -12.942757125745858 0.0 0.0 108.90796363550892 0.0 0.0 0.0 0.0 0.0
1.525 1.47 0.0 -66.21457244579493 0.0 0.0 95.55924724574575 0.0 0.0 0.0 0.0 0.0 0.0 0.0 0.0 0.0 0.0 0.0 0.0 0.0 0.0 0.0 0.0 0.0 0.0 0.0 0.0 0.0 0.0 0.0 -2.601391128790291 0.0 0.0 -82.3482173931514 0.0 0.0 0.0 0.0 0.0 -18.19367521809007 0.0 0.0 120.23999912258306 0.0 0.0 0.0 0.0 0.0
